<svg width="456" height="456" viewBox="0 0 456 456" fill="none" xmlns="http://www.w3.org/2000/svg">
<circle cx="228" cy="228" r="228" fill="#FAEDCB"/>
<path d="M194.388 43.8798C196.384 41.9749 199.663 42.6147 200.797 45.1301L204.547 53.4538C204.908 54.2547 205.523 54.9145 206.296 55.3314L214.332 59.6644C216.76 60.9738 217.165 64.2906 215.123 66.1458L208.366 72.285C207.716 72.8757 207.278 73.664 207.121 74.5281L205.483 83.5098C204.988 86.224 201.959 87.6341 199.563 86.2653L191.636 81.7358C190.874 81.3 189.989 81.1273 189.118 81.2445L180.07 82.4625C177.336 82.8306 175.059 80.3853 175.62 77.6841L177.479 68.7454C177.657 67.8854 177.548 66.9905 177.168 66.1987L173.213 57.9698C172.018 55.4831 173.64 52.5617 176.383 52.2611L185.458 51.2663C186.331 51.1705 187.149 50.7901 187.784 50.1836L194.388 43.8798Z" fill="#FBDC8C"/>
<path d="M283.166 29.1194C284.754 26.8626 288.095 26.8523 289.696 29.0992L294.994 36.5345C295.504 37.2499 296.235 37.7776 297.074 38.0362L305.8 40.7234C308.436 41.5354 309.479 44.7101 307.836 46.9271L302.402 54.2634C301.879 54.9692 301.603 55.8276 301.617 56.7059L301.758 65.8345C301.8 68.5932 299.103 70.5655 296.487 69.6888L287.83 66.7876C286.998 66.5084 286.096 66.5112 285.265 66.7955L276.626 69.7501C274.016 70.643 271.307 68.6873 271.332 65.9285L271.416 56.7991C271.424 55.9208 271.143 55.0642 270.616 54.3615L265.136 47.0589C263.481 44.8521 264.503 41.6711 267.135 40.8428L275.844 38.1017C276.681 37.838 277.409 37.3058 277.915 36.5873L283.166 29.1194Z" fill="#FBDC8C"/>
<path d="M254.749 90.7023C256.336 88.4455 259.678 88.4352 261.279 90.6821L266.577 98.1174C267.087 98.8328 267.818 99.3605 268.657 99.6191L277.382 102.306C280.019 103.118 281.062 106.293 279.419 108.51L273.985 115.846C273.462 116.552 273.186 117.41 273.2 118.289L273.34 127.417C273.383 130.176 270.686 132.148 268.07 131.272L259.413 128.37C258.58 128.091 257.679 128.094 256.848 128.378L248.209 131.333C245.599 132.226 242.889 130.27 242.915 127.511L242.999 118.382C243.007 117.504 242.726 116.647 242.199 115.944L236.719 108.642C235.063 106.435 236.086 103.254 238.718 102.426L247.426 99.6846C248.264 99.4209 248.992 98.8887 249.497 98.1702L254.749 90.7023Z" fill="#FBDC8C"/>
<path d="M330.719 94.3234C331.156 91.5994 334.155 90.126 336.579 91.4442L344.599 95.8062C345.371 96.2259 346.259 96.3799 347.127 96.2444L356.148 94.8366C358.874 94.4112 361.202 96.8081 360.697 99.5205L359.027 108.496C358.866 109.36 358.994 110.252 359.391 111.036L363.518 119.18C364.765 121.641 363.205 124.596 360.469 124.954L351.417 126.139C350.546 126.253 349.736 126.651 349.114 127.27L342.644 133.712C340.688 135.658 337.396 135.087 336.21 132.596L332.285 124.353C331.908 123.56 331.28 122.913 330.498 122.513L322.373 118.349C319.917 117.091 319.443 113.784 321.445 111.886L328.072 105.606C328.71 105.002 329.131 104.205 329.27 103.337L330.719 94.3234Z" fill="#FBDC8C"/>
<path d="M414.815 154.106C417.481 153.398 420.047 155.538 419.829 158.289L419.106 167.39C419.036 168.265 419.257 169.139 419.733 169.877L424.688 177.546C426.185 179.863 424.943 182.964 422.259 183.607L413.38 185.731C412.526 185.936 411.763 186.416 411.208 187.097L405.447 194.179C403.705 196.319 400.371 196.095 398.932 193.742L394.167 185.954C393.709 185.205 393.016 184.627 392.197 184.311L383.681 181.019C381.108 180.025 380.29 176.785 382.084 174.688L388.018 167.75C388.589 167.083 388.924 166.246 388.972 165.369L389.471 156.253C389.622 153.498 392.45 151.719 394.999 152.777L403.431 156.277C404.242 156.613 405.142 156.674 405.991 156.448L414.815 154.106Z" fill="#FBDC8C"/>
<path d="M393.395 223.394C395.436 221.537 398.699 222.256 399.771 224.798L403.32 233.209C403.662 234.019 404.26 234.693 405.023 235.129L412.952 239.654C415.349 241.021 415.674 244.347 413.587 246.153L406.684 252.127C406.02 252.702 405.563 253.48 405.385 254.34L403.531 263.279C402.971 265.981 399.909 267.317 397.547 265.891L389.732 261.172C388.98 260.718 388.099 260.524 387.226 260.62L378.151 261.62C375.409 261.922 373.191 259.423 373.818 256.736L375.891 247.845C376.09 246.989 376.003 246.092 375.641 245.291L371.886 236.969C370.752 234.455 372.443 231.573 375.192 231.339L384.289 230.563C385.164 230.488 385.991 230.127 386.64 229.536L393.395 223.394Z" fill="#FBDC8C"/>
<path d="M370.846 312.471C370.741 309.714 373.392 307.68 376.027 308.497L384.748 311.199C385.587 311.459 386.488 311.435 387.313 311.132L395.881 307.98C398.47 307.028 401.224 308.921 401.262 311.679L401.387 320.808C401.399 321.687 401.7 322.536 402.243 323.227L407.888 330.402C409.594 332.57 408.645 335.774 406.033 336.662L397.389 339.602C396.558 339.885 395.842 340.434 395.354 341.164L390.274 348.75C388.739 351.043 385.399 351.13 383.747 348.92L378.28 341.608C377.754 340.905 377.011 340.394 376.166 340.155L367.381 337.668C364.726 336.917 363.612 333.767 365.202 331.513L370.467 324.054C370.974 323.336 371.23 322.472 371.196 321.594L370.846 312.471Z" fill="#FBDC8C"/>
<path d="M278.634 413.487C276.277 412.053 276.045 408.72 278.181 406.973L285.248 401.193C285.928 400.637 286.406 399.873 286.608 399.018L288.71 390.133C289.345 387.448 292.443 386.197 294.764 387.689L302.445 392.624C303.184 393.099 304.059 393.317 304.935 393.245L314.034 392.499C316.784 392.273 318.931 394.833 318.23 397.502L315.91 406.332C315.686 407.181 315.749 408.081 316.088 408.891L319.61 417.314C320.674 419.86 318.902 422.693 316.148 422.851L307.033 423.373C306.156 423.423 305.32 423.761 304.654 424.334L297.732 430.286C295.64 432.085 292.398 431.275 291.396 428.704L288.083 420.197C287.764 419.379 287.185 418.688 286.434 418.231L278.634 413.487Z" fill="#FBDC8C"/>
<path d="M151.634 152.487C149.277 151.053 149.045 147.72 151.181 145.973L158.248 140.193C158.928 139.637 159.406 138.873 159.608 138.018L161.71 129.133C162.345 126.448 165.443 125.197 167.764 126.689L175.445 131.624C176.184 132.099 177.059 132.317 177.935 132.245L187.034 131.499C189.784 131.273 191.931 133.833 191.23 136.502L188.91 145.332C188.686 146.181 188.749 147.081 189.088 147.891L192.61 156.314C193.674 158.86 191.902 161.693 189.148 161.851L180.033 162.373C179.156 162.423 178.32 162.761 177.654 163.334L170.732 169.286C168.64 171.085 165.398 170.275 164.396 167.705L161.083 159.197C160.764 158.379 160.185 157.688 159.434 157.231L151.634 152.487Z" fill="#FBDC8C"/>
<path d="M91.6343 208.487C89.2771 207.053 89.0449 203.72 91.1805 201.973L98.2476 196.193C98.9276 195.637 99.4056 194.873 99.6078 194.018L101.71 185.133C102.345 182.448 105.443 181.197 107.764 182.689L115.445 187.624C116.184 188.099 117.059 188.317 117.935 188.245L127.034 187.499C129.784 187.273 131.931 189.833 131.23 192.502L128.91 201.332C128.686 202.181 128.749 203.081 129.088 203.891L132.61 212.314C133.674 214.86 131.902 217.693 129.148 217.851L120.033 218.373C119.156 218.423 118.32 218.761 117.654 219.334L110.732 225.286C108.64 227.085 105.398 226.275 104.396 223.704L101.083 215.197C100.764 214.379 100.185 213.688 99.4344 213.231L91.6343 208.487Z" fill="#FBDC8C"/>
<path d="M25.466 191.28C26.0659 188.587 29.1476 187.295 31.4881 188.756L39.2333 193.59C39.9785 194.055 40.856 194.262 41.7305 194.178L50.8191 193.312C53.5656 193.051 55.7462 195.583 55.0802 198.26L52.8765 207.12C52.6644 207.972 52.7389 208.871 53.0884 209.677L56.7205 218.053C57.8181 220.584 56.084 223.44 53.3319 223.634L44.2247 224.276C43.3485 224.338 42.517 224.686 41.8585 225.268L35.0147 231.31C32.9465 233.137 29.6942 232.37 28.6593 229.812L25.2345 221.349C24.905 220.535 24.3166 219.852 23.5602 219.405L15.6984 214.764C13.3226 213.361 13.0466 210.031 15.1591 208.257L22.1496 202.384C22.8222 201.819 23.2901 201.049 23.4811 200.191L25.466 191.28Z" fill="#FBDC8C"/>
<path d="M41.3209 280.195C40.6529 277.519 42.8317 274.985 45.5784 275.245L54.6676 276.104C55.5421 276.187 56.4195 275.979 57.1644 275.514L64.906 270.674C67.2454 269.212 70.3281 270.501 70.9299 273.193L72.9214 282.103C73.113 282.961 73.5815 283.731 74.2545 284.295L81.2493 290.163C83.3631 291.936 83.0896 295.266 80.7149 296.67L72.8565 301.318C72.1004 301.765 71.5125 302.448 71.1836 303.263L67.765 311.728C66.732 314.287 63.4802 315.056 61.4107 313.231L54.5625 307.193C53.9036 306.613 53.0718 306.265 52.1955 306.204L43.0879 305.568C40.3356 305.376 38.5994 302.521 39.6952 299.989L43.3211 291.611C43.67 290.804 43.7438 289.906 43.5312 289.054L41.3209 280.195Z" fill="#FBDC8C"/>
<path d="M92.6905 330.522C94.5632 328.496 97.8763 328.93 99.1648 331.369L103.429 339.442C103.839 340.219 104.493 340.839 105.291 341.207L113.582 345.029C116.088 346.184 116.699 349.469 114.777 351.448L108.417 357.998C107.805 358.628 107.418 359.442 107.315 360.314L106.242 369.381C105.918 372.121 102.982 373.717 100.506 372.501L92.3114 368.476C91.5229 368.089 90.6289 367.972 89.7674 368.143L80.8132 369.925C78.1072 370.463 75.6816 368.165 76.0731 365.434L77.3689 356.397C77.4935 355.527 77.3285 354.641 76.8993 353.874L72.438 345.909C71.0898 343.502 72.5259 340.485 75.2443 340.013L84.2397 338.453C85.1052 338.303 85.8972 337.872 86.4934 337.227L92.6905 330.522Z" fill="#FBDC8C"/>
<path d="M156.424 319.108C156.854 316.383 159.849 314.901 162.276 316.213L170.308 320.554C171.081 320.972 171.97 321.123 172.837 320.985L181.854 319.554C184.579 319.121 186.913 321.512 186.416 324.226L184.769 333.206C184.611 334.07 184.741 334.962 185.14 335.744L189.288 343.877C190.542 346.335 188.989 349.294 186.255 349.66L177.205 350.869C176.335 350.985 175.527 351.385 174.906 352.006L168.452 358.464C166.502 360.416 163.208 359.854 162.016 357.366L158.069 349.133C157.69 348.341 157.06 347.696 156.277 347.297L148.141 343.156C145.682 341.904 145.199 338.598 147.196 336.695L153.807 330.398C154.443 329.792 154.862 328.993 154.999 328.126L156.424 319.108Z" fill="#FBDC8C"/>
<path d="M167.109 381.497C169.484 380.092 172.534 381.457 173.069 384.164L174.84 393.12C175.011 393.982 175.46 394.764 176.119 395.345L182.967 401.383C185.036 403.207 184.68 406.53 182.272 407.875L174.301 412.327C173.534 412.755 172.929 413.424 172.581 414.23L168.954 422.609C167.858 425.141 164.588 425.829 162.565 423.954L155.867 417.749C155.223 417.152 154.4 416.784 153.526 416.701L144.436 415.842C141.69 415.582 140.025 412.685 141.183 410.181L145.014 401.894C145.383 401.096 145.479 400.2 145.287 399.343L143.296 390.433C142.695 387.74 144.935 385.261 147.675 385.589L156.74 386.672C157.612 386.776 158.495 386.591 159.251 386.144L167.109 381.497Z" fill="#FBDC8C"/>
<path d="M303.032 325.95C304.44 323.577 307.771 323.308 309.541 325.425L315.398 332.428C315.961 333.102 316.731 333.572 317.588 333.765L326.495 335.769C329.187 336.375 330.471 339.459 329.005 341.797L324.155 349.531C323.688 350.275 323.479 351.153 323.561 352.027L324.407 361.118C324.662 363.865 322.126 366.04 319.45 365.368L310.595 363.145C309.743 362.931 308.844 363.003 308.038 363.351L299.653 366.965C297.12 368.057 294.267 366.316 294.079 363.564L293.458 354.455C293.398 353.579 293.051 352.747 292.471 352.087L286.443 345.23C284.622 343.158 285.396 339.907 287.955 338.878L296.426 335.471C297.241 335.144 297.925 334.557 298.374 333.801L303.032 325.95Z" fill="#FBDC8C"/>
<path d="M236.912 367.176C239.02 365.397 242.255 366.236 243.232 368.816L246.466 377.354C246.777 378.176 247.35 378.872 248.096 379.336L255.851 384.153C258.195 385.608 258.396 388.944 256.244 390.67L249.123 396.384C248.438 396.934 247.953 397.694 247.743 398.547L245.558 407.411C244.898 410.09 241.788 411.312 239.481 409.799L231.846 404.792C231.112 404.311 230.239 404.084 229.363 404.148L220.257 404.809C217.505 405.009 215.382 402.429 216.108 399.767L218.511 390.959C218.742 390.112 218.688 389.212 218.356 388.398L214.913 379.942C213.873 377.387 215.671 374.571 218.427 374.439L227.546 374.002C228.423 373.959 229.262 373.63 229.934 373.063L236.912 367.176Z" fill="#FBDC8C"/>
<path d="M58.8832 161.869C56.5666 163.368 53.4644 162.126 52.8211 159.443L50.6926 150.565C50.4878 149.711 50.0075 148.948 49.3259 148.394L42.2414 142.635C40.1006 140.895 40.3227 137.561 42.6756 136.12L50.4614 131.352C51.2105 130.893 51.7878 130.201 52.1041 129.381L55.3918 120.864C56.3853 118.29 59.6248 117.471 61.7222 119.263L68.6627 125.195C69.3305 125.766 70.1675 126.101 71.0446 126.148L80.161 126.643C82.9159 126.792 84.6958 129.62 83.6392 132.169L80.1428 140.603C79.8064 141.414 79.7465 142.314 79.9722 143.163L82.3188 151.986C83.0279 154.652 80.8885 157.219 78.1381 157.001L69.0367 156.282C68.161 156.213 67.2869 156.434 66.5493 156.911L58.8832 161.869Z" fill="#FBDC8C"/>
<path d="M94.8784 71.5684C93.9579 68.9675 95.8848 66.2376 98.6437 66.2339L107.773 66.2213C108.652 66.2201 109.505 65.9298 110.202 65.3952L117.447 59.8387C119.636 58.1596 122.827 59.1485 123.684 61.7713L126.517 70.4503C126.789 71.2854 127.329 72.0075 128.053 72.5051L135.576 77.6777C137.85 79.2408 137.895 82.5819 135.665 84.2066L128.287 89.583C127.577 90.1003 127.057 90.8369 126.807 91.6791L124.213 100.432C123.429 103.078 120.265 104.154 118.031 102.535L110.637 97.1787C109.926 96.6634 109.065 96.3966 108.187 96.4194L99.06 96.6567C96.302 96.7284 94.3012 94.0523 95.1501 91.4272L97.9595 82.7404C98.2298 81.9046 98.2174 81.0031 97.9244 80.175L94.8784 71.5684Z" fill="#FBDC8C"/>
<path d="M168.698 331.917C153.095 333.021 78.8269 328.5 70.3269 294C67.8269 293.5 63.8269 292.5 62.3269 287.5C67.8748 287.5 68.3269 287 70.8269 285.5L70.6958 285.433C67.728 283.926 62.8342 281.441 63.3269 277.5C67.8748 277.5 70.3269 277.5 72.8269 275C69.0917 272.5 66.8269 272 65.3269 266C71.8269 268.5 75.5345 266.467 76.3269 265C81.8269 252.5 90.5021 244.77 98.8268 237C105.827 230.467 108.684 209.354 114.686 199.417C121.887 189.426 134.925 178.521 143.327 173C151.729 167.479 163.108 161.921 175.9 155.897C196.488 146.2 215.611 142 231.158 142L231.357 142C250.154 142 265.4 142 289.926 155.897C298.158 160.561 314.822 169.035 323.534 176.229C331.253 182.604 343.939 193.896 353.541 206.042C366.744 229.229 367.012 240.263 371.545 246.896C378.21 255.07 380.827 262 382.327 268.5C384.327 270 387.327 270.5 391.327 269.5C391.327 273.5 387.827 277 386.327 278.5C387.827 281 390.327 280.5 393.327 279.5C393.502 280.611 391.327 284 390.827 284.5C390.327 285 388.827 286 386.327 288C388.827 290.5 391.327 289 393.327 289C392.827 294.5 385.399 298.512 385.327 299.5C379.827 327 301.974 337.049 280.369 331.917C264.765 345.882 249.117 354 225.111 354C201.106 354 172.299 340.75 168.698 331.917Z" fill="#8A8682"/>
<path d="M220.327 134.5C221.827 136.5 223.327 142.5 223.327 142.5V150L244.827 149.5C244.827 149.5 243.827 147 244.327 144L243.327 141.5C243.145 141.86 242.327 142 241.827 141.5C241.327 141 235.827 134.5 232.827 133.5C235.327 137 236.827 141 236.327 141.5C235.827 142 235.327 142.5 233.827 141C231.827 137.5 226.646 130.795 223.827 131.5C226.066 133.739 228.757 138.341 228.827 140.5C228.866 141.715 227.137 142.08 226.327 141C223.327 137 221.827 134.5 220.327 134.5Z" fill="#8A8682"/>
<path d="M113.826 200.5C121.326 189.5 134.421 179.504 142.826 173.5C151.232 167.496 163.326 162 176.326 155.5C176.326 155.5 143.524 112 123.111 112C117.107 112 112.087 113.997 107.501 125.209C96.6935 151.626 113.826 200.5 113.826 200.5Z" fill="#8A8682"/>
<path d="M123.062 125.209C108.653 122.439 117.058 196.055 123.062 190.051C129.066 184.047 144.826 171.5 148.826 169C152.654 161.238 137.472 127.978 123.062 125.209Z" fill="#67635E"/>
<path d="M113.826 200.5C121.326 189.5 134.421 179.504 142.826 173.5C151.232 167.496 163.326 162 176.326 155.5C176.326 155.5 143.524 112 123.111 112C117.107 112 112.087 113.997 107.501 125.209C96.6935 151.626 113.826 200.5 113.826 200.5Z" stroke="#3E3430" stroke-width="2" stroke-linejoin="round"/>
<path d="M289.326 155.5C297.326 160.5 315.326 168.869 323.826 176.5C332.326 184.13 343.826 193.5 354.326 207C354.326 207 366.539 155.128 362.067 128.811C360.702 120.776 354.862 117.651 350.059 116.803C329.646 113.201 289.326 155.5 289.326 155.5Z" fill="#8A8682"/>
<path d="M351.211 131.212C346.408 118.004 319.228 156.591 316.826 171C321.326 175 339.826 193 345.208 198.456C350.589 203.913 356.015 144.421 351.211 131.212Z" fill="#67635E"/>
<path d="M289.326 155.5C297.326 160.5 315.326 168.869 323.826 176.5C332.326 184.131 343.826 193.5 354.326 207C354.326 207 366.539 155.128 362.067 128.811C360.702 120.776 354.862 117.651 350.059 116.803C329.646 113.201 289.326 155.5 289.326 155.5Z" stroke="#3E3430" stroke-width="2" stroke-linejoin="round"/>
<path d="M203.326 279C200.326 277.364 193.826 276 189.826 276C185.826 276 177.826 278 174.826 280C171.826 282 167.826 285 164.326 290C160.826 295 158.326 305 159.826 312.5C161.326 320 164.326 324.75 168.826 331.5C173.326 338.25 176.326 338.5 188.326 345C200.326 351.5 210.826 354 225.826 354C240.826 354 256.826 348 262.326 344.5C267.826 341 275.826 335.5 279.826 331.5C283.826 327.5 287.249 322 288.326 315C289.403 308 289.326 304 288.326 298C287.326 292 282.326 285.5 277.826 280C273.326 274.5 275.326 276.3 267.326 275.5C259.326 274.7 253.826 277.5 249.826 280C245.826 282.5 244.326 283.5 241.326 286C238.326 288.5 231.826 295 235.826 299C239.826 303 226.826 308 226.826 308C226.826 308 210.326 302 215.826 300C221.326 298 212.826 287.5 211.326 285C209.826 282.5 206.326 280.636 203.326 279Z" fill="#EBEBEB"/>
<path d="M240.754 296.388C232.808 292.322 216.917 290.967 208.972 297.743C201.026 304.52 203.674 309.941 207.647 314.684C211.62 319.428 233.47 321.461 241.416 316.717C249.362 311.974 248.7 300.454 240.754 296.388Z" fill="#131111"/>
<path d="M230.223 297.513C228.201 296.897 224.158 296.692 222.136 297.718C220.114 298.744 220.788 299.565 221.799 300.283C222.81 301.002 228.37 301.309 230.392 300.591C232.413 299.873 232.245 298.129 230.223 297.513Z" fill="#BDBDBD"/>
<path d="M201.326 324.5C200.326 330.351 205.826 335.5 212.326 334.5C218.326 333.255 222.242 330 226.326 330C229.751 330 235.826 334.5 239.826 334.5C244.326 335.745 251.326 331.351 250.326 324.5" stroke="#3E3430" stroke-width="2.5" stroke-linecap="round"/>
<path d="M153.013 219.5C145.513 224 132.013 234 127.513 239C123.013 244 115.326 251.5 110.826 261.5C106.326 271.5 109.076 286 110.826 288.5C112.576 291 115.826 298 127.513 294.5C139.199 291 158.513 283 160.513 282C162.513 281 173.013 277 181.013 271.5C189.013 266 193.513 260 199.513 253C205.513 246 204.513 238 203.513 232C202.513 226 200.013 222.5 195.013 218C190.013 213.5 182.513 212 175.513 212C168.513 212 160.513 215 153.013 219.5Z" fill="#EBEBEB"/>
<path d="M153.013 235.5C145.513 240 136.513 248.5 130.513 256C124.513 263.5 120.326 269.5 119.326 275C118.326 280.5 119.013 289.5 122.013 293C125.013 296.5 130.699 301.219 138.513 302C146.326 302.781 158.513 299 160.513 298C162.513 297 173.013 293 181.013 287.5C189.013 282 197.013 276 199.513 269C202.013 262 203.826 254.5 202.826 248.5C201.826 242.5 198.215 238 194.326 234.5C190.437 231 184.326 228 175.513 228C166.699 228 160.513 231 153.013 235.5Z" fill="#282424"/>
<path d="M162.775 256.648C162.775 250.976 167.578 245.84 173.582 245.84C179.586 245.84 183.188 250.644 183.188 255.447C183.188 260.25 178.385 263.852 173.582 265.053C168.779 266.254 162.775 262.319 162.775 256.648Z" fill="#131111" stroke="#131111"/>
<circle cx="175.983" cy="251.844" r="4.80314" fill="#BDBDBD"/>
<circle cx="168.779" cy="261.451" r="2.40157" fill="#BDBDBD"/>
<path d="M305.082 216.5C312.582 221 326.082 231 330.582 236C335.082 241 343.338 249 347.582 258C351.826 267 349.326 279 346.326 284C343.326 289 338.582 295 330.582 291.5C322.582 288 299.582 280 297.582 279C295.582 278 285.082 274 277.082 268.5C269.082 263 264.582 257 258.582 250C252.582 243 253.582 235 254.582 229C255.582 223 258.082 219.5 263.082 215C268.082 210.5 275.582 209 282.582 209C289.582 209 297.582 212 305.082 216.5Z" fill="#EBEBEB"/>
<path d="M305.082 232.5C312.582 237 321.582 245.5 327.582 253C333.582 260.5 338.826 268.5 339.582 274C340.338 279.5 339.082 286.5 336.082 290C333.082 293.5 326.826 298.276 319.582 299C312.338 299.724 299.582 296 297.582 295C295.582 294 285.082 290 277.082 284.5C269.082 279 261.082 273 258.582 266C256.082 259 254.838 251 256.082 245.5C257.326 240 258.882 235.5 263.326 231.5C267.771 227.5 275.582 225 282.582 225C289.582 225 297.582 228 305.082 232.5Z" fill="#282424"/>
<path d="M275.526 258.131C275.526 252.46 280.329 247.324 286.333 247.324C292.337 247.324 295.939 252.127 295.939 256.93C295.94 261.733 291.136 265.336 286.333 266.537C281.53 267.737 275.526 263.803 275.526 258.131Z" fill="#131111" stroke="#131111" stroke-width="2"/>
<circle r="4.80314" transform="matrix(-1 0 0 1 282.731 253.328)" fill="#BDBDBD"/>
<circle r="2.40157" transform="matrix(-1 0 0 1 289.935 260.533)" fill="#BDBDBD"/>
<path d="M223.326 142.336C209.374 143.506 193.151 147.772 175.9 155.897C163.108 161.921 151.846 167.396 143.444 172.917C135.042 178.438 121.887 189.426 114.686 199.417C108.684 209.354 104.436 233.5 96.8269 239.5C88.2837 246.236 81.1008 254.143 76.3269 265C75.6137 266.622 70.9356 268.5 65.5 266C66 271.5 69 272.5 73.5 275C70.7982 277 68.0002 278.5 63 277C64 282 66.8269 284 71.3269 285.5C67.1537 288 65.5 288 62 287C63.5002 289.5 64 293.5 70.5 294C77.0808 328.007 153.948 332.96 168.698 331.917C172.299 340.75 201.106 354 225.111 354C249.117 354 264.765 345.882 280.369 331.917C301.074 336.835 380.782 327.004 385.326 299.5C387.326 297 391.326 295.5 393.326 289C391.826 289.5 388.327 290 385.826 288C389.827 286.5 393.826 281.5 393.326 279.5C390.327 280.5 388.327 281 385.826 278.5C388.18 277 391.326 272.5 391.326 269.5C388.326 270 382.811 270.047 382.326 268.5C380.117 261.446 380.46 257.831 371.545 246.896C367.012 240.263 366.744 229.229 353.541 206.042C343.939 193.896 331.253 182.604 323.534 176.229C314.822 169.035 298.158 160.561 289.926 155.897C270.999 145.172 257.598 142.724 243.826 142.165" stroke="#3E3430" stroke-width="2" stroke-linecap="round" stroke-linejoin="round"/>
<path d="M223.318 142C223.318 142 222.82 138.727 219.826 135.172M229.326 144C229.825 143.69 228.815 134.455 223.826 132M237.327 143C236.329 140.136 235.318 136.152 231.327 133.5M243.327 142C241.327 139.5 239.822 137.897 237.827 136.5" stroke="#3E3430" stroke-width="2" stroke-linecap="round" stroke-linejoin="round"/>
</svg>
